<svg viewBox="0 0 400 260" xmlns="http://www.w3.org/2000/svg" role="img" aria-label="To-Do list app preview">
  <rect x="0" y="0" width="400" height="260" fill="#F1F8FE" rx="10"/>
  <rect x="20" y="20" width="360" height="220" rx="8" fill="#FFFFFF" stroke="#D7E7F6" stroke-width="2"/>
  <rect x="20" y="20" width="360" height="26" rx="8" fill="#0B0F14"/>
  <rect x="20" y="36" width="360" height="10" fill="#0B0F14"/>
  <circle cx="36" cy="33" r="4" fill="#2E9BF0"/>
  <circle cx="50" cy="33" r="4" fill="#FFFFFF" opacity="0.5"/>
  <circle cx="64" cy="33" r="4" fill="#FFFFFF" opacity="0.5"/>

  <rect x="40" y="60" width="260" height="24" rx="5" fill="#F1F8FE" stroke="#D7E7F6"/>
  <rect x="310" y="60" width="50" height="24" rx="5" fill="#0B0F14"/>

  <rect x="40" y="100" width="320" height="30" rx="5" fill="#F1F8FE"/>
  <circle cx="54" cy="115" r="7" fill="none" stroke="#2E9BF0" stroke-width="2"/>
  <rect x="70" y="110" width="150" height="8" rx="2" fill="#5B6B7A"/>

  <rect x="40" y="138" width="320" height="30" rx="5" fill="#F1F8FE"/>
  <circle cx="54" cy="153" r="7" fill="#2E9BF0"/>
  <path d="M50 153 L53 156 L58 149" stroke="#FFFFFF" stroke-width="1.5" fill="none"/>
  <rect x="70" y="148" width="120" height="8" rx="2" fill="#B7C4D0"/>

  <rect x="40" y="176" width="320" height="30" rx="5" fill="#F1F8FE"/>
  <circle cx="54" cy="191" r="7" fill="none" stroke="#2E9BF0" stroke-width="2"/>
  <rect x="70" y="186" width="180" height="8" rx="2" fill="#5B6B7A"/>
</svg>
