<svg viewBox="0 0 400 260" xmlns="http://www.w3.org/2000/svg" role="img" aria-label="Email template preview">
  <rect x="0" y="0" width="400" height="260" fill="#F1F8FE" rx="10"/>
  <rect x="70" y="20" width="260" height="220" rx="8" fill="#FFFFFF" stroke="#D7E7F6" stroke-width="2"/>

  <rect x="70" y="20" width="260" height="50" rx="8" fill="#2E9BF0"/>
  <rect x="70" y="52" width="260" height="18" fill="#2E9BF0"/>
  <rect x="95" y="36" width="90" height="12" rx="3" fill="#FFFFFF"/>

  <rect x="95" y="90" width="210" height="10" rx="2" fill="#0B0F14"/>
  <rect x="95" y="108" width="180" height="7" rx="2" fill="#5B6B7A"/>
  <rect x="95" y="122" width="150" height="7" rx="2" fill="#5B6B7A"/>

  <rect x="95" y="145" width="210" height="60" rx="6" fill="#F1F8FE" stroke="#D7E7F6"/>
  <rect x="110" y="158" width="120" height="7" rx="2" fill="#5B6B7A"/>
  <rect x="110" y="172" width="90" height="7" rx="2" fill="#5B6B7A"/>
  <rect x="110" y="186" width="80" height="16" rx="4" fill="#E0A94D"/>

  <rect x="95" y="216" width="80" height="6" rx="2" fill="#B7C4D0"/>
</svg>
